<?xml version="1.0" encoding="utf-8"?>
<!-- Generator: Adobe Illustrator 22.1.0, SVG Export Plug-In . SVG Version: 6.00 Build 0)  -->
<svg version="1.1" id="Layer_1" xmlns="http://www.w3.org/2000/svg" xmlns:xlink="http://www.w3.org/1999/xlink" x="0px" y="0px"
	 viewBox="0 0 83.5 82.2" style="enable-background:new 0 0 83.5 82.2;" xml:space="preserve">
<style type="text/css">
	.st0{opacity:0.6;}
	.st1{fill:#333333;}
</style>
<title>squares</title>
<g>
	<g>
		<g>
			<g>
				<g>
					<g class="st0">
						<g>
							<path class="st1" d="M41.2,76.9L5.8,41.5L22.4,25l5-11l0.1-0.3l0,0l2.6-5.6l3.3,1.4l2-2.9l3.1,2.2l2.7-2.7l13.1,13.1
								l14.4,6.6L67.4,29l5.9,4.1l-2.1,3l5.5,5.5L41.2,76.9L41.2,76.9z M9.7,45l31.6,31.6l35.1-35.1l-5.3-5.3L46.9,71l-0.1-0.1
								L9.7,45z M6.2,41.5l2.9,2.9l12.8-18.4l0.2-0.5L6.2,41.5z M21.4,27.3l-12,17.2l3.1,2.2L21.4,27.3z M17.9,49.3L13,47.1
								l33.8,23.5l24.1-34.6l-4.6-4.6L51,64.6l-0.1-0.1L18.3,49.5L17.9,49.3L17.9,49.3z M22.1,26.2l-9.4,20.4l5.3,2.4l7.2-26.5
								l-1.7,1.7L22.1,26.2z M25.4,22.3l-7.2,26.9l0.2,0.1l35,9.4l1.5-5.5l-31.1-2.7v-0.1l2.5-29L25.4,22.3z M53.3,58.9l-33.6-9
								l31.2,14.3L53.3,58.9z M26.2,25L24,50.3l4.5,0.4L26.2,25z M26.3,24.1l2.3,26.5l26.5-2.3l-2.4-26.6l0,0L26.3,24.1z M55.2,48.5
								l-26.1,2.3L54.8,53L55.2,48.5z M62.1,27.3l-8.2,30.5L66,31.3L62.1,27.3L62.1,27.3z M27,15.4l-4.2,9.1l0.4-0.4l2.3-3.4
								L27,15.4z M25.4,21.4l-1.2,1.8l1.1-1.1L25.4,21.4z M26.4,21.2l-0.2,2.6l25.2-2.2l-23.3-1.9L26.4,21.2z M57.7,22.9L55.2,52
								l6.7-24.9L57.7,22.9z M25.8,20.9l-0.3,1l0.7-0.7l0.1-1.1L25.8,20.9z M26.6,19.7l-0.1,1.1l1.3-1.3l-1.1-0.1L26.6,19.7z
								 M27.6,14.1l-1.6,6l0.3-0.5l0-0.4l0.3,0.1l3.2-4.6L27.6,14.1L27.6,14.1z M30.1,14.7l-3.2,4.5l1.1,0.1l4.2-4.2L30.1,14.7z
								 M53.1,21.7l2.2,25.5l2.2-24.5l-0.6-0.6L53.1,21.7z M32.4,15.3l-4.1,4.1l24.5,2.1l0.2,0l0,0l3.4,0.3L32.4,15.3z M30.2,8.5
								l-2.5,5.4l2.2,0.6l3.3-4.6L30.2,8.5z M33.4,9.9l-3.2,4.5l2.1,0.6l3.9-3.9L33.4,9.9z M36.4,11.3l-3.8,3.8l23.6,6.4l-4.7-3.3
								L36.4,11.3z M35.4,7.1l-1.9,2.7l2.8,1.3l2-2L35.4,7.1z M38.5,9.2l-1.9,1.9l13.8,6.3L38.5,9.2z M41.3,6.5L38.7,9L51.6,18
								l2.2,1L41.3,6.5z M54.2,19.5l-1.5-0.7l2.7,1.9L54.2,19.5z M66.3,31.3L71,36l1.9-2.8l-5.6-3.9L66.3,31.3z M62.1,27.1l4,4l1-2
								l-4.6-3.2L62.1,27.1z M57.7,22.6l4.3,4.3l0.4-1.1L57.7,22.6L57.7,22.6z M57.4,22.3L57.4,22.3L57.4,22.3L57.4,22.3z
								 M54.8,19.7l1.7,1.7l0.3,0.2L62,23L54.8,19.7z M57.8,22.1L57.8,22.1l4.6,3.3l0.5-2L57.8,22.1z M63.1,23.5l-0.6,2.1l4.6,3.2
								l1.3-2.8L63.1,23.5z M32.7,50.3l0-0.1l-4.8-17.8l-0.5-1.1l0.2-0.1l-0.9-3.2l17.9-4.9l1.1-0.5l0.1,0.2l3.2-0.9l4.9,17.9
								l0.5,1.1L54,41.1l0.9,3.2l-0.1,0L37,49.1L36,49.6l-0.1-0.2L32.7,50.3z M28.4,33.6L32.8,50l2.9-0.8L28.4,33.6z M28.1,32.3
								L36,49.2l0.9-0.2L53.7,41l-0.2-0.9l-7.9-16.8l-0.9,0.2l-16.9,7.9L28.1,32.3z M53.8,41.2l-15.6,7.3L54.5,44L53.8,41.2z
								 M27,28.3l0.8,2.9l15.6-7.3L27,28.3z M45.8,23.2l7.3,15.6l-4.4-16.5L45.8,23.2z"/>
						</g>
					</g>
				</g>
			</g>
		</g>
	</g>
</g>
</svg>
